PathFileType	4	(X/Y/Z)	../Python\running\Running08\task.trc
DataRate	CameraRate	NumFrames	NumMarkers	Units	OrigDataRate	OrigDataStartFrame	OrigNumFrames
200.000000	200.000000	4	30	mm	200.000000	51	204
Frame#	Time	C7			RBAK			CLAV			STRN			RASI			RPSI			LASI			PE01			RTH2			RTH3			RTB2			RD5M			RTOE			LTH3			LTB2			LTB3			LHEE			LTOE			LD5M			RTH1			RHEE			LPSI			PE02			RTB3			RTB1			PE03			T10			LTH2			LTH1			LTB1			
		X1	Y1	Z1	X2	Y2	Z2	X3	Y3	Z3	X4	Y4	Z4	X5	Y5	Z5	X6	Y6	Z6	X7	Y7	Z7	X8	Y8	Z8	X9	Y9	Z9	X10	Y10	Z10	X11	Y11	Z11	X12	Y12	Z12	X13	Y13	Z13	X14	Y14	Z14	X15	Y15	Z15	X16	Y16	Z16	X17	Y17	Z17	X18	Y18	Z18	X19	Y19	Z19	X20	Y20	Z20	X21	Y21	Z21	X22	Y22	Z22	X23	Y23	Z23	X24	Y24	Z24	X25	Y25	Z25	X26	Y26	Z26	X27	Y27	Z27	X28	Y28	Z28	X29	Y29	Z29	X30	Y30	Z30	

52	0.255	-853.7764282226567	1301.953125	131.4163513183594	-886.737426757813	1233.27294921875	261.1926574707032	-743.2855224609377	1186.880493164063	126.0011291503907	-714.8430786132815	992.8170776367192	150.2433166503907	-777.3803100585942	803.0671997070317	287.6600036621095	-964.8747558593755	874.4799194335942	254.3871612548829	-785.2827758789067	827.3220825195317	60.63036727905276	-958.1953735351567	912.4060058593755	215.3630676269532	-800.3562622070317	444.564392089844	327.4009399414064	-779.5852661132817	502.3207092285159	332.3757934570314	-980.1694335937505	330.1192016601564	296.634490966797	-1163.809204101563	163.8725128173829	278.3972778320314	-1132.575805664063	131.5425720214844	239.063446044922	-740.818298339844	564.2126464843752	36.50126266479494	-852.5193481445317	194.0030517578126	77.49944305419925	-808.3847045898442	208.4083251953126	89.23120880126956	-960.1382446289067	36.92246246337892	137.8071441650391	-778.0185546875005	31.3938617706299	164.734359741211	-804.7446289062505	13.74004650115968	104.3842926025391	-827.1789550781255	518.9746704101565	337.3365783691407	-1196.1103515625	289.2590637207032	181.7981872558594	-974.6892700195317	885.230346679688	167.4398498535157	-984.0905761718755	852.671752929688	229.521453857422	-997.9484863281255	285.8501892089845	278.8055419921876	-921.0846557617192	303.8326416015626	293.8598937988282	-987.9556274414067	863.7410278320317	179.8642883300782	-930.545532226563	1020.814270019532	195.1456604003907	-801.7014160156255	513.3945312500002	48.12400817871097	-790.1664428710942	571.1129150390627	29.36033058166505	-818.279663085938	264.9971618652345	63.04384231567386	
53	0.26	-838.5024414062505	1301.658081054688	131.6488189697266	-873.2367553710942	1232.947875976563	260.4732360839845	-727.892272949219	1186.149536132813	127.7939376831055	-699.7341918945315	992.0148315429692	151.9596557617188	-762.8482666015627	802.380981445313	287.2635192871095	-950.235717773438	874.8638305664067	254.4281616210939	-771.4531250000005	826.071655273438	60.14944839477542	-943.4216308593755	912.593383789063	215.3720550537111	-776.3523559570317	445.8950500488284	327.5981445312501	-757.1571044921877	504.216735839844	332.8303833007814	-952.9379882812505	327.756561279297	298.964813232422	-1132.546752929688	158.2120056152344	282.2861328125001	-1101.150512695313	126.8486099243165	242.3324279785157	-729.6705322265627	562.5834960937502	36.4682083129883	-849.7253417968755	193.1158447265626	77.34006500244143	-805.410034179688	206.8001251220704	89.22094726562503	-960.1447143554692	37.86359786987306	137.7662200927735	-778.1771850585942	31.28889656066896	164.6974334716797	-804.9479980468755	13.6368808746338	104.3319320678712	-805.3081054687505	519.5225219726565	337.717987060547	-1170.199829101563	282.9214477539064	186.5427398681641	-960.2644653320317	885.5056762695317	167.480209350586	-969.5991821289067	853.0251464843755	229.5982513427736	-970.264038085938	283.3631591796876	281.0015258789064	-893.4921264648442	302.652313232422	295.110809326172	-973.608520507813	864.102416992188	179.938949584961	-915.729614257813	1020.401916503907	194.6009368896486	-791.112182617188	512.2517700195315	47.24123764038087	-779.1208496093755	569.9312744140627	29.06868553161623	-814.3676147460942	263.4177246093751	62.74445724487308	
54	0.265	-823.3040161132817	1301.700317382813	131.9435424804688	-859.807983398438	1232.959228515625	259.6917419433595	-712.5515747070315	1185.934692382813	129.6837310791016	-684.6159667968752	991.8101196289067	153.7235260009766	-748.3031005859377	802.1686401367192	286.9724731445314	-935.615844726563	875.6013793945317	254.1612701416017	-757.5264892578127	824.9623413085942	59.7539978027344	-928.6137084960942	913.110961914063	215.0713043212892	-752.4548339843752	447.8847656250002	327.678192138672	-734.7995605468752	506.7023620605471	333.2220764160157	-925.7129516601567	325.619110107422	301.1738586425782	-1100.843627929688	152.3161773681641	286.1544494628907	-1069.272094726563	121.9454040527344	245.620086669922	-718.8798828125002	560.8436279296877	36.50671768188478	-847.2986450195317	192.3659515380861	77.25331878662112	-802.8002929687505	205.3630371093751	89.19389343261722	-960.1696166992192	38.92624664306642	137.7886047363282	-778.3403930664067	31.21127700805665	164.6844024658204	-805.2194824218755	13.5705213546753	104.3119812011719	-783.4639282226567	520.676208496094	338.0454101562501	-1143.962646484375	276.0291748046876	191.2173309326172	-945.7431640625005	886.0126342773442	167.2727966308594	-955.1360473632817	853.736938476563	229.3992462158204	-942.4801635742192	281.0313110351564	283.149139404297	-865.9584960937505	301.8992309570314	296.381805419922	-959.1652832031255	864.7400512695317	179.7345123291016	-900.8651733398442	1020.307495117188	193.9573974609376	-781.058227539063	511.2808227539065	46.39127731323244	-768.3918457031255	568.885437011719	28.84444808959962	-810.918579101563	261.9966735839845	62.50206375122073	
55	0.27	-808.1838378906255	1302.076782226563	132.2926483154297	-846.453002929688	1233.29736328125	258.8372497558595	-697.2586059570315	1186.229248046875	131.6636962890626	-669.4766845703127	992.190551757813	155.5275573730469	-733.729431152344	802.4304199218755	286.7832336425782	-921.009887695313	876.6462402343755	253.6011199951173	-743.4824829101565	824.007690429688	59.43725967407229	-913.7741088867192	913.937377929688	214.4742126464845	-728.7031860351565	450.5277099609377	327.6464843750001	-712.5583496093752	509.7761535644534	333.5473937988282	-898.5322265625005	323.7158813476564	303.2599182128907	-1068.70361328125	146.2509307861329	289.9979248046876	-1036.929077148438	116.900733947754	248.9310607910157	-708.582946777344	558.9548339843752	36.63167572021486	-845.196899414063	191.8106536865235	77.2519226074219	-800.5136718750005	204.1485443115236	89.17837524414065	-960.2160644531255	40.15424728393556	137.8814239501954	-778.5072631835942	31.1609230041504	164.6992797851563	-805.5691528320317	13.55067253112794	104.3395538330079	-761.6860961914065	522.4272460937502	338.3248596191407	-1117.371826171875	268.6080627441407	195.7899932861329	-931.1179809570317	886.7391967773442	166.8243560791016	-940.6884155273442	854.7795410156255	228.9404907226564	-914.619262695313	278.8628234863282	285.2376708984376	-838.5131835937505	301.5681762695314	297.661834716797	-944.6213989257817	865.6279907226567	179.2658386230469	-885.9440917968755	1020.5244140625	193.207977294922	-771.6774291992192	510.4842834472659	45.61357498168947	-758.0659790039065	567.9629516601565	28.68994903564455	-807.8706054687505	260.796112060547	62.33964920043948	
